{
	"cameras":[{
		"type":"perspective",
		"perspective":{
			"znear":0.009999999776482582,
			"zfar":10000000000.0,
			"aspectRatio":1.0,
			"yfov":0.950021505355835
		}
	}],
	"asset":{
		"version":"2.0",
		"generator":"Maxon Cinema 4D 2023.2.0"
	},
	"scenes":[{
		"nodes":[0,
		1,
		2]
	}],
	"nodes":[{
		"translation":[-0.016036655753850938,
		-1.4210854397564649e-16,
		0.0],
		"name":"Null_1",
		"rotation":[-0.13293057680130006,
		0.12840786576271058,
		0.04192674160003662,
		0.981877326965332],
		"scale":[1.0,
		1.0,
		1.0],
		"children":[3,
		4,
		5,
		6,
		7,
		8]
	},
	{
		"translation":[0.0,
		0.0,
		3.2264304161071779],
		"name":"Kamera",
		"camera":0,
		"rotation":[0.0,
		0.0,
		0.0,
		-1.0],
		"scale":[1.0,
		1.0,
		1.0]
	},
	{
		"name":"Ebene",
		"mesh":0
	},
	{
		"translation":[-0.024660427123308183,
		-0.7712476849555969,
		-0.21171711385250092],
		"name":"Shape 0.3",
		"mesh":1,
		"rotation":[0.9832518696784973,
		-0.04199211671948433,
		0.13061805069446565,
		-0.11996418237686157],
		"scale":[0.0009671556181274354,
		-0.000967147178016603,
		0.0014536436647176743]
	},
	{
		"translation":[-0.12856124341487885,
		-0.760013222694397,
		-0.2391301691532135],
		"name":"Shape 0.2",
		"mesh":2,
		"rotation":[0.9832518696784973,
		-0.04199211671948433,
		0.13061805069446565,
		-0.11996418237686157],
		"scale":[0.0009671556181274354,
		-0.000967147178016603,
		0.0014536436647176743]
	},
	{
		"translation":[-0.094838447868824,
		-0.7639926671981812,
		-0.23032212257385255],
		"name":"Shape 0.1",
		"mesh":3,
		"rotation":[0.9832518696784973,
		-0.04199211671948433,
		0.13061805069446565,
		-0.11996418237686157],
		"scale":[0.0009671556181274354,
		-0.000967147178016603,
		0.0014536436647176743]
	},
	{
		"translation":[0.04562699422240257,
		-0.7805671095848084,
		-0.19363364577293397],
		"name":"Shape 0",
		"mesh":4,
		"rotation":[0.9832518696784973,
		-0.04199211671948433,
		0.13061805069446565,
		-0.11996418237686157],
		"scale":[0.0009671556181274354,
		-0.000967147178016603,
		0.0014536436647176743]
	},
	{
		"translation":[-0.055898141115903857,
		0.015349764376878739,
		-0.0743931233882904],
		"name":"Cube_2.1",
		"mesh":5,
		"rotation":[0.1332821398973465,
		-0.12005741894245148,
		-0.04079533740878105,
		0.9829332828521729],
		"scale":[0.007829202339053154,
		0.007828816771507264,
		0.008600409142673016]
	},
	{
		"translation":[-0.11878775805234909,
		0.012969915755093098,
		-0.046660635620355609],
		"name":"Cube_2",
		"mesh":6,
		"rotation":[0.1332821398973465,
		-0.12005741149187088,
		-0.04079534485936165,
		0.9829332828521729],
		"scale":[0.00999724306166172,
		0.010000001639127732,
		0.010985581204295159]
	}],
	"meshes":[{
		"name":"Ebene",
		"primitives":[{
			"attributes":{
				"POSITION":3,
				"NORMAL":4,
				"TEXCOORD_0":5
			},
			"indices":2
		}]
	},
	{
		"name":"Shape 0.3",
		"primitives":[{
			"attributes":{
				"POSITION":7,
				"NORMAL":8,
				"TEXCOORD_0":9
			},
			"indices":6
		}]
	},
	{
		"name":"Shape 0.2",
		"primitives":[{
			"attributes":{
				"POSITION":11,
				"NORMAL":12,
				"TEXCOORD_0":13
			},
			"indices":10
		}]
	},
	{
		"name":"Shape 0.1",
		"primitives":[{
			"attributes":{
				"POSITION":15,
				"NORMAL":16,
				"TEXCOORD_0":17
			},
			"indices":14
		}]
	},
	{
		"name":"Shape 0",
		"primitives":[{
			"attributes":{
				"POSITION":19,
				"NORMAL":20,
				"TEXCOORD_0":21
			},
			"indices":18
		}]
	},
	{
		"name":"Cube_2.1",
		"primitives":[{
			"attributes":{
				"POSITION":23,
				"NORMAL":24,
				"TEXCOORD_0":25
			},
			"indices":22
		}]
	},
	{
		"name":"Cube_2",
		"primitives":[{
			"attributes":{
				"POSITION":27,
				"NORMAL":28,
				"TEXCOORD_0":29
			},
			"indices":26
		}]
	}],
	"accessors":[{
		"bufferView":0,
		"type":"SCALAR",
		"min":[0.0],
		"componentType":5126,
		"count":263,
		"byteOffset":0,
		"max":[8.733333587646485]
	},
	{
		"bufferView":0,
		"type":"VEC4",
		"min":[-0.13719862699508668,
		-0.0963839441537857,
		-0.017469072714447976,
		-0.9905328750610352],
		"componentType":5126,
		"count":263,
		"byteOffset":1052,
		"max":[0.13874077796936036,
		0.12840786576271058,
		0.04192674160003662,
		0.9905214309692383]
	},
	{
		"bufferView":1,
		"type":"SCALAR",
		"min":[0],
		"componentType":5123,
		"count":24,
		"byteOffset":0,
		"max":[23]
	},
	{
		"bufferView":2,
		"type":"VEC3",
		"min":[-1.6963266134262086,
		-1.6963266134262086,
		0.0],
		"componentType":5126,
		"count":24,
		"byteOffset":0,
		"max":[1.6963266134262086,
		1.6963266134262086,
		0.0]
	},
	{
		"bufferView":2,
		"type":"VEC3",
		"min":[0.0,
		0.0,
		1.0],
		"componentType":5126,
		"count":24,
		"byteOffset":12,
		"max":[0.0,
		0.0,
		1.0]
	},
	{
		"bufferView":2,
		"type":"VEC2",
		"min":[0.0,
		0.0],
		"componentType":5126,
		"count":24,
		"byteOffset":24,
		"max":[1.0,
		1.0]
	},
	{
		"bufferView":3,
		"type":"SCALAR",
		"min":[0],
		"componentType":5123,
		"count":6492,
		"byteOffset":0,
		"max":[6491]
	},
	{
		"bufferView":4,
		"type":"VEC3",
		"min":[0.0,
		-79.19999694824219,
		0.0],
		"componentType":5126,
		"count":6492,
		"byteOffset":0,
		"max":[67.4000015258789,
		0.0,
		4.0]
	},
	{
		"bufferView":4,
		"type":"VEC3",
		"min":[-0.9998363256454468,
		-0.9999509453773499,
		-1.0],
		"componentType":5126,
		"count":6492,
		"byteOffset":12,
		"max":[0.9998765587806702,
		0.9999331831932068,
		1.0]
	},
	{
		"bufferView":4,
		"type":"VEC2",
		"min":[0.000030517578125,
		0.000030517578125],
		"componentType":5126,
		"count":6492,
		"byteOffset":24,
		"max":[1.0,
		1.0]
	},
	{
		"bufferView":5,
		"type":"SCALAR",
		"min":[0],
		"componentType":5123,
		"count":612,
		"byteOffset":0,
		"max":[611]
	},
	{
		"bufferView":6,
		"type":"VEC3",
		"min":[0.0,
		-77.0,
		0.0],
		"componentType":5126,
		"count":612,
		"byteOffset":0,
		"max":[24.399999618530275,
		0.0,
		4.0]
	},
	{
		"bufferView":6,
		"type":"VEC3",
		"min":[-1.0,
		-1.0,
		-1.0],
		"componentType":5126,
		"count":612,
		"byteOffset":12,
		"max":[1.0,
		1.0,
		1.0]
	},
	{
		"bufferView":6,
		"type":"VEC2",
		"min":[0.000030517578125,
		0.000030517578125],
		"componentType":5126,
		"count":612,
		"byteOffset":24,
		"max":[1.0,
		1.0]
	},
	{
		"bufferView":7,
		"type":"SCALAR",
		"min":[0],
		"componentType":5123,
		"count":2676,
		"byteOffset":0,
		"max":[2675]
	},
	{
		"bufferView":8,
		"type":"VEC3",
		"min":[0.0,
		-77.0,
		0.0],
		"componentType":5126,
		"count":2676,
		"byteOffset":0,
		"max":[68.9000015258789,
		0.0,
		4.0]
	},
	{
		"bufferView":8,
		"type":"VEC3",
		"min":[-1.0,
		-1.0,
		-1.0],
		"componentType":5126,
		"count":2676,
		"byteOffset":12,
		"max":[1.0,
		1.0,
		1.0]
	},
	{
		"bufferView":8,
		"type":"VEC2",
		"min":[0.000030517578125,
		0.000030517578125],
		"componentType":5126,
		"count":2676,
		"byteOffset":24,
		"max":[1.0,
		1.0]
	},
	{
		"bufferView":9,
		"type":"SCALAR",
		"min":[0],
		"componentType":5123,
		"count":2184,
		"byteOffset":0,
		"max":[2183]
	},
	{
		"bufferView":10,
		"type":"VEC3",
		"min":[0.0,
		-77.0,
		0.0],
		"componentType":5126,
		"count":2184,
		"byteOffset":0,
		"max":[68.69844055175781,
		0.0,
		4.0]
	},
	{
		"bufferView":10,
		"type":"VEC3",
		"min":[-1.0,
		-1.0,
		-1.0],
		"componentType":5126,
		"count":2184,
		"byteOffset":12,
		"max":[1.0,
		1.0,
		1.0]
	},
	{
		"bufferView":10,
		"type":"VEC2",
		"min":[0.000030517578125,
		0.000030517578125],
		"componentType":5126,
		"count":2184,
		"byteOffset":24,
		"max":[1.0,
		1.0]
	},
	{
		"bufferView":11,
		"type":"SCALAR",
		"min":[0],
		"componentType":5123,
		"count":17088,
		"byteOffset":0,
		"max":[17087]
	},
	{
		"bufferView":12,
		"type":"VEC3",
		"min":[-86.96979522705078,
		-100.05299377441406,
		-10.608838081359864],
		"componentType":5126,
		"count":17088,
		"byteOffset":0,
		"max":[113.88903045654297,
		100.07308959960938,
		14.712788581848145]
	},
	{
		"bufferView":12,
		"type":"VEC3",
		"min":[-0.9993438720703125,
		-0.9983990788459778,
		-0.9999935626983643],
		"componentType":5126,
		"count":17088,
		"byteOffset":12,
		"max":[0.9993438720703125,
		0.9983990788459778,
		0.999990701675415]
	},
	{
		"bufferView":12,
		"type":"VEC2",
		"min":[-0.02791118621826172,
		-0.019999980926513673],
		"componentType":5126,
		"count":17088,
		"byteOffset":24,
		"max":[15.57568359375,
		1.019989013671875]
	},
	{
		"bufferView":13,
		"type":"SCALAR",
		"min":[0],
		"componentType":5123,
		"count":17088,
		"byteOffset":0,
		"max":[17087]
	},
	{
		"bufferView":14,
		"type":"VEC3",
		"min":[-86.96979522705078,
		-100.05299377441406,
		-10.608838081359864],
		"componentType":5126,
		"count":17088,
		"byteOffset":0,
		"max":[113.88903045654297,
		100.07308959960938,
		14.712788581848145]
	},
	{
		"bufferView":14,
		"type":"VEC3",
		"min":[-0.9993438720703125,
		-0.9983990788459778,
		-0.9999935626983643],
		"componentType":5126,
		"count":17088,
		"byteOffset":12,
		"max":[0.9993438720703125,
		0.9983990788459778,
		0.999990701675415]
	},
	{
		"bufferView":14,
		"type":"VEC2",
		"min":[-0.02791118621826172,
		-0.019999980926513673],
		"componentType":5126,
		"count":17088,
		"byteOffset":24,
		"max":[15.57568359375,
		1.019989013671875]
	}],
	"bufferViews":[{
		"buffer":0,
		"byteOffset":0,
		"byteLength":5260
	},
	{
		"buffer":1,
		"byteOffset":0,
		"byteLength":48,
		"target":34963
	},
	{
		"buffer":1,
		"byteOffset":48,
		"byteLength":768,
		"target":34962,
		"byteStride":32
	},
	{
		"buffer":2,
		"byteOffset":0,
		"byteLength":12984,
		"target":34963
	},
	{
		"buffer":2,
		"byteOffset":12984,
		"byteLength":207744,
		"target":34962,
		"byteStride":32
	},
	{
		"buffer":3,
		"byteOffset":0,
		"byteLength":1224,
		"target":34963
	},
	{
		"buffer":3,
		"byteOffset":1224,
		"byteLength":19584,
		"target":34962,
		"byteStride":32
	},
	{
		"buffer":4,
		"byteOffset":0,
		"byteLength":5352,
		"target":34963
	},
	{
		"buffer":4,
		"byteOffset":5352,
		"byteLength":85632,
		"target":34962,
		"byteStride":32
	},
	{
		"buffer":5,
		"byteOffset":0,
		"byteLength":4368,
		"target":34963
	},
	{
		"buffer":5,
		"byteOffset":4368,
		"byteLength":69888,
		"target":34962,
		"byteStride":32
	},
	{
		"buffer":6,
		"byteOffset":0,
		"byteLength":34176,
		"target":34963
	},
	{
		"buffer":6,
		"byteOffset":34176,
		"byteLength":546816,
		"target":34962,
		"byteStride":32
	},
	{
		"buffer":7,
		"byteOffset":0,
		"byteLength":34176,
		"target":34963
	},
	{
		"buffer":7,
		"byteOffset":34176,
		"byteLength":546816,
		"target":34962,
		"byteStride":32
	}],
	"buffers":[{
		"uri":"data:application/octet-stream;base64,",
		"byteLength":5260
	},
	{
		"uri":"data:application/octet-stream;base64,",
		"byteLength":816
	},
	{
		"uri":"data:application/octet-stream;base64,",
		"byteLength":220728
	},
	{
		"uri":"data:application/octet-stream;base64,",
		"byteLength":20808
	},
	{
		"uri":"data:application/octet-stream;base64,",
		"byteLength":90984
	},
	{
		"uri":"data:application/octet-stream;base64,",
		"byteLength":74256
	},
	{
		"uri":"data:application/octet-stream;base64,",
		"byteLength":580992
	},
	{
		"uri":"data:application/octet-stream;base64,",
		"byteLength":580992
	}],
	"animations":[{
		"samplers":[{
			"input":0,
			"interpolation":"LINEAR",
			"output":1
		}],
		"channels":[{
			"sampler":0,
			"target":{
				"node":0,
				"path":"rotation"
			}
		}]
	}]
}