{
  "asset": {
    "version": "2.0",
    "generator": "THREE.GLTFExporter"
  },
  "scenes": [
    {
      "nodes": [
        0
      ]
    }
  ],
  "scene": 0,
  "nodes": [
    {
      "children": [
        7
      ],
      "matrix": [
        0.01,
        0,
        0,
        0,
        0,
        0.01,
        0,
        0,
        0,
        0,
        0.01,
        0,
        0,
        0,
        0,
        1
      ]
    },
    {
      "matrix": [
        0.9978237580186684,
        0,
        0.06593745470900365,
        0,
        0,
        1,
        0,
        0,
        -0.06593745470900365,
        0,
        0.9978237580186684,
        0,
        40.89564604358341,
        -36.599999999999994,
        65.91,
        1
      ],
      "name": "Shape 0",
      "mesh": 0
    },
    {
      "matrix": [
        0.9978237580186684,
        0,
        0.06593745470900365,
        0,
        0,
        1,
        0,
        0,
        -0.06593745470900365,
        0,
        0.9978237580186684,
        0,
        16.44830459757891,
        -63.2,
        64.3045105972096,
        1
      ],
      "name": "Shape 1",
      "mesh": 1
    },
    {
      "matrix": [
        1,
        0,
        0,
        0,
        0,
        1,
        0,
        0,
        0,
        0,
        1,
        0,
        -99,
        112,
        0,
        1
      ],
      "name": "Shimmer_Logo_Wyn-01",
      "children": [
        1,
        2
      ]
    },
    {
      "matrix": [
        0.5883484054145521,
        0.39223227027636803,
        -0.7071067811865475,
        0,
        -0.554700196225229,
        0.8320502943378437,
        0,
        0,
        0.588348405414552,
        0.392232270276368,
        0.7071067811865476,
        0,
        0,
        0,
        0,
        1
      ],
      "name": "Directional Light",
      "extensions": {
        "KHR_lights_punctual": {
          "light": 0
        }
      }
    },
    {
      "matrix": [
        1,
        0,
        0,
        0,
        0,
        1,
        -6.123233995736766e-17,
        0,
        0,
        6.123233995736766e-17,
        1,
        0,
        0,
        6.123233995736766e-14,
        1000,
        1
      ],
      "camera": 0
    },
    {
      "matrix": [
        1,
        0,
        0,
        0,
        0,
        1,
        0,
        0,
        0,
        0,
        1,
        0,
        0,
        1,
        0,
        1
      ],
      "name": "Default Ambient Light"
    },
    {
      "name": "Scene 1",
      "children": [
        3,
        4,
        5,
        6
      ]
    }
  ],
  "bufferViews": [
    {
      "buffer": 0,
      "byteOffset": 0,
      "byteLength": 3072,
      "target": 34962,
      "byteStride": 12
    },
    {
      "buffer": 0,
      "byteOffset": 3072,
      "byteLength": 3072,
      "target": 34962,
      "byteStride": 12
    },
    {
      "buffer": 0,
      "byteOffset": 6144,
      "byteLength": 2048,
      "target": 34962,
      "byteStride": 8
    },
    {
      "buffer": 0,
      "byteOffset": 8192,
      "byteLength": 2928,
      "target": 34963
    },
    {
      "buffer": 0,
      "byteOffset": 11120,
      "byteLength": 3072,
      "target": 34962,
      "byteStride": 12
    },
    {
      "buffer": 0,
      "byteOffset": 14192,
      "byteLength": 3072,
      "target": 34962,
      "byteStride": 12
    },
    {
      "buffer": 0,
      "byteOffset": 17264,
      "byteLength": 2048,
      "target": 34962,
      "byteStride": 8
    },
    {
      "buffer": 0,
      "byteOffset": 19312,
      "byteLength": 2928,
      "target": 34963
    }
  ],
  "buffers": [
    {
      "byteLength": 22240,
      "uri": "data:application/octet-stream;base64,"
    }
  ],
  "accessors": [
    {
      "bufferView": 0,
      "componentType": 5126,
      "count": 256,
      "max": [
        143.5,
        29.262500762939453,
        37
      ],
      "min": [
        -27.725000381469727,
        -146.1999969482422,
        0
      ],
      "type": "VEC3"
    },
    {
      "bufferView": 1,
      "componentType": 5126,
      "count": 256,
      "max": [
        0.9991230368614197,
        0.9984780550003052,
        1
      ],
      "min": [
        -0.9991320967674255,
        -0.9982955455780029,
        -1
      ],
      "type": "VEC3"
    },
    {
      "bufferView": 2,
      "componentType": 5126,
      "count": 256,
      "max": [
        1,
        1
      ],
      "min": [
        0,
        0
      ],
      "type": "VEC2"
    },
    {
      "bufferView": 3,
      "componentType": 5125,
      "count": 732,
      "max": [
        255
      ],
      "min": [
        0
      ],
      "type": "SCALAR"
    },
    {
      "bufferView": 4,
      "componentType": 5126,
      "count": 256,
      "max": [
        171.3249969482422,
        0,
        37
      ],
      "min": [
        0,
        -175.46249389648438,
        0
      ],
      "type": "VEC3"
    },
    {
      "bufferView": 5,
      "componentType": 5126,
      "count": 256,
      "max": [
        0.9991320967674255,
        0.9982955455780029,
        1
      ],
      "min": [
        -0.9991230368614197,
        -0.9984797835350037,
        -1
      ],
      "type": "VEC3"
    },
    {
      "bufferView": 6,
      "componentType": 5126,
      "count": 256,
      "max": [
        1,
        1
      ],
      "min": [
        0,
        0
      ],
      "type": "VEC2"
    },
    {
      "bufferView": 7,
      "componentType": 5125,
      "count": 732,
      "max": [
        255
      ],
      "min": [
        0
      ],
      "type": "SCALAR"
    }
  ],
  "meshes": [
    {
      "primitives": [
        {
          "mode": 4,
          "attributes": {
            "POSITION": 0,
            "NORMAL": 1,
            "TEXCOORD_0": 2
          },
          "extras": {
            "parameters": {
              "width": 171.225,
              "subdivisions": 12,
              "roundness": 0,
              "extrudeBevelSize": 0,
              "extrudeBevelSegments": 1,
              "windingRule": 0,
              "shape": {
                "points": [
                  {
                    "fi": 0,
                    "id": "3cad2cad-956d-414d-807f-1b407ff29b32",
                    "data": {
                      "roundness": 0,
                      "position": [
                        0.3999999999999986,
                        -146.20000000000002
                      ],
                      "areControlsDirectionsMirrored": true,
                      "controlPrevious": {
                        "position": [
                          0.29999999999999716,
                          -146
                        ]
                      },
                      "controlNext": {
                        "position": [
                          0.3999999999999986,
                          -146.20000000000002
                        ]
                      }
                    }
                  },
                  {
                    "fi": 1,
                    "id": "017fd3f3-0a56-4fc4-869b-2994ab5c8005",
                    "data": {
                      "roundness": 0,
                      "position": [
                        25.300000000000004,
                        -121.00000000000003
                      ],
                      "areControlsDirectionsMirrored": true,
                      "controlPrevious": {
                        "position": [
                          25.300000000000004,
                          -121.00000000000003
                        ]
                      },
                      "controlNext": {
                        "position": [
                          0.5000000000000071,
                          -94.40000000000003
                        ]
                      }
                    }
                  },
                  {
                    "fi": 2,
                    "id": "ac9adcc7-089e-40c6-8763-9ee567f56190",
                    "data": {
                      "roundness": 0,
                      "position": [
                        27.20000000000001,
                        -26.00000000000002
                      ],
                      "areControlsDirectionsMirrored": true,
                      "controlPrevious": {
                        "position": [
                          1.3000000000000043,
                          -51.90000000000003
                        ]
                      },
                      "controlNext": {
                        "position": [
                          52.90000000000001,
                          -0.3000000000000185
                        ]
                      }
                    }
                  },
                  {
                    "fi": 3,
                    "id": "16b13efe-6139-42df-be79-a6fe657e0313",
                    "data": {
                      "roundness": 0,
                      "position": [
                        118.60000000000002,
                        -26.600000000000023
                      ],
                      "areControlsDirectionsMirrored": true,
                      "controlPrevious": {
                        "position": [
                          93.70000000000002,
                          -0.6000000000000227
                        ]
                      },
                      "controlNext": {
                        "position": [
                          118.60000000000002,
                          -26.600000000000023
                        ]
                      }
                    }
                  },
                  {
                    "fi": 4,
                    "id": "f612d896-4ff7-4422-be6e-57ab23c66e9b",
                    "data": {
                      "roundness": 0,
                      "position": [
                        143.5,
                        -1.3999999999999986
                      ],
                      "areControlsDirectionsMirrored": true,
                      "controlPrevious": {
                        "position": [
                          143.5,
                          -1.3999999999999986
                        ]
                      },
                      "controlNext": {
                        "position": [
                          105.30000000000001,
                          38.9
                        ]
                      }
                    }
                  },
                  {
                    "fi": 5,
                    "id": "882aad74-11eb-4066-a0d6-cd027a12b359",
                    "data": {
                      "roundness": 0,
                      "position": [
                        2.8999999999999986,
                        0
                      ],
                      "areControlsDirectionsMirrored": true,
                      "controlPrevious": {
                        "position": [
                          42.49999999999999,
                          39.6
                        ]
                      },
                      "controlNext": {
                        "position": [
                          -36.800000000000004,
                          -39.70000000000001
                        ]
                      }
                    }
                  },
                  {
                    "fi": 6,
                    "id": "aeb4660c-9d15-449a-ba37-7e6bd8fa729d",
                    "data": {
                      "roundness": 0,
                      "position": [
                        0,
                        -145.6
                      ],
                      "areControlsDirectionsMirrored": true,
                      "controlPrevious": {
                        "position": [
                          -38.1,
                          -104.9
                        ]
                      },
                      "controlNext": {
                        "position": [
                          0.10000000000000142,
                          -145.8
                        ]
                      }
                    }
                  }
                ],
                "isClosed": true,
                "roundness": 0,
                "shapeHoles": []
              },
              "type": "VectorGeometry",
              "height": 175.4625,
              "depth": 37
            },
            "shape": {
              "points": [
                0.3999999999999986,
                -146.20000000000002,
                0.29999999999999716,
                -146,
                0.3999999999999986,
                -146.20000000000002,
                0,
                25.300000000000004,
                -121.00000000000003,
                25.300000000000004,
                -121.00000000000003,
                0.5000000000000071,
                -94.40000000000003,
                0,
                27.20000000000001,
                -26.00000000000002,
                1.3000000000000043,
                -51.90000000000003,
                52.90000000000001,
                -0.3000000000000185,
                0,
                118.60000000000002,
                -26.600000000000023,
                93.70000000000002,
                -0.6000000000000227,
                118.60000000000002,
                -26.600000000000023,
                0,
                143.5,
                -1.3999999999999986,
                143.5,
                -1.3999999999999986,
                105.30000000000001,
                38.9,
                0,
                2.8999999999999986,
                0,
                42.49999999999999,
                39.6,
                -36.800000000000004,
                -39.70000000000001,
                0,
                0,
                -145.6,
                -38.1,
                -104.9,
                0.10000000000000142,
                -145.8,
                0
              ],
              "shapeHoles": [],
              "isClosed": true,
              "roundness": 0
            },
            "type": "VectorGeometry"
          },
          "indices": 3
        }
      ]
    },
    {
      "primitives": [
        {
          "mode": 4,
          "attributes": {
            "POSITION": 4,
            "NORMAL": 5,
            "TEXCOORD_0": 6
          },
          "extras": {
            "parameters": {
              "width": 100,
              "subdivisions": 12,
              "roundness": 0,
              "extrudeBevelSize": 0,
              "extrudeBevelSegments": 1,
              "windingRule": 0,
              "shape": {
                "points": [
                  {
                    "fi": 0,
                    "id": "2962eabc-e1a1-451a-9ef3-ab09d4b00b79",
                    "data": {
                      "roundness": 0,
                      "position": [
                        143.10000000000002,
                        0
                      ],
                      "areControlsDirectionsMirrored": true,
                      "controlPrevious": {
                        "position": [
                          143.30000000000004,
                          -0.09999999999999432
                        ]
                      },
                      "controlNext": {
                        "position": [
                          143.10000000000002,
                          0
                        ]
                      }
                    }
                  },
                  {
                    "fi": 1,
                    "id": "ebb42b05-e123-458c-a296-04f845967e56",
                    "data": {
                      "roundness": 0,
                      "position": [
                        118.20000000000002,
                        -25.200000000000003
                      ],
                      "areControlsDirectionsMirrored": true,
                      "controlPrevious": {
                        "position": [
                          118.20000000000002,
                          -25.200000000000003
                        ]
                      },
                      "controlNext": {
                        "position": [
                          143.00000000000003,
                          -51.8
                        ]
                      }
                    }
                  },
                  {
                    "fi": 2,
                    "id": "e57a82dc-b8a8-4ad6-bee3-0db5022f8ae2",
                    "data": {
                      "roundness": 0,
                      "position": [
                        116.30000000000001,
                        -120.2
                      ],
                      "areControlsDirectionsMirrored": true,
                      "controlPrevious": {
                        "position": [
                          142.20000000000002,
                          -94.3
                        ]
                      },
                      "controlNext": {
                        "position": [
                          90.6,
                          -145.89999999999998
                        ]
                      }
                    }
                  },
                  {
                    "fi": 3,
                    "id": "8e22e910-9aee-44bf-b22a-b896287aa33d",
                    "data": {
                      "roundness": 0,
                      "position": [
                        24.9,
                        -119.60000000000001
                      ],
                      "areControlsDirectionsMirrored": true,
                      "controlPrevious": {
                        "position": [
                          49.800000000000004,
                          -145.60000000000002
                        ]
                      },
                      "controlNext": {
                        "position": [
                          24.9,
                          -119.60000000000001
                        ]
                      }
                    }
                  },
                  {
                    "fi": 4,
                    "id": "06477328-f244-4c6c-9464-772edb9718ac",
                    "data": {
                      "roundness": 0,
                      "position": [
                        0,
                        -144.8
                      ],
                      "areControlsDirectionsMirrored": true,
                      "controlPrevious": {
                        "position": [
                          0,
                          -144.8
                        ]
                      },
                      "controlNext": {
                        "position": [
                          38.2,
                          -185.10000000000002
                        ]
                      }
                    }
                  },
                  {
                    "fi": 5,
                    "id": "2536ba90-b288-4365-9954-d2b85362f5f7",
                    "data": {
                      "roundness": 0,
                      "position": [
                        140.7,
                        -146.2
                      ],
                      "areControlsDirectionsMirrored": true,
                      "controlPrevious": {
                        "position": [
                          101,
                          -185.8
                        ]
                      },
                      "controlNext": {
                        "position": [
                          180.39999999999998,
                          -106.49999999999999
                        ]
                      }
                    }
                  },
                  {
                    "fi": 6,
                    "id": "61e51dfe-96a4-4c42-b0b5-c904a87e5d12",
                    "data": {
                      "roundness": 0,
                      "position": [
                        143.6,
                        -0.6000000000000085
                      ],
                      "areControlsDirectionsMirrored": true,
                      "controlPrevious": {
                        "position": [
                          181.7,
                          -41.3
                        ]
                      },
                      "controlNext": {
                        "position": [
                          143.40000000000003,
                          -0.29999999999999716
                        ]
                      }
                    }
                  }
                ],
                "isClosed": true,
                "roundness": 0,
                "shapeHoles": []
              },
              "type": "VectorGeometry",
              "height": 100,
              "depth": 37
            },
            "shape": {
              "points": [
                143.10000000000002,
                0,
                143.30000000000004,
                -0.09999999999999432,
                143.10000000000002,
                0,
                0,
                118.20000000000002,
                -25.200000000000003,
                118.20000000000002,
                -25.200000000000003,
                143.00000000000003,
                -51.8,
                0,
                116.30000000000001,
                -120.2,
                142.20000000000002,
                -94.3,
                90.6,
                -145.89999999999998,
                0,
                24.9,
                -119.60000000000001,
                49.800000000000004,
                -145.60000000000002,
                24.9,
                -119.60000000000001,
                0,
                0,
                -144.8,
                0,
                -144.8,
                38.2,
                -185.10000000000002,
                0,
                140.7,
                -146.2,
                101,
                -185.8,
                180.39999999999998,
                -106.49999999999999,
                0,
                143.6,
                -0.6000000000000085,
                181.7,
                -41.3,
                143.40000000000003,
                -0.29999999999999716,
                0
              ],
              "shapeHoles": [],
              "isClosed": true,
              "roundness": 0
            },
            "type": "VectorGeometry"
          },
          "indices": 7
        }
      ]
    }
  ],
  "extensions": {
    "KHR_lights_punctual": {
      "lights": [
        {
          "name": "Directional Light",
          "color": [
            1,
            1,
            1
          ],
          "intensity": 0.7,
          "type": "directional"
        }
      ]
    }
  },
  "cameras": [
    {
      "type": "orthographic",
      "orthographic": {
        "xmag": 9.98,
        "ymag": 5.82,
        "zfar": 100000,
        "znear": 0
      }
    }
  ],
  "extensionsUsed": [
    "KHR_lights_punctual"
  ]
}